<?xml version="1.0" encoding="UTF-8" standalone="no"?>
<!DOCTYPE svg PUBLIC "-//W3C//DTD SVG 20010904//EN" "http://www.w3.org/TR/2001/REC-SVG-20010904/DTD/svg10.dtd">
<svg version="1.0" xmlns="http://www.w3.org/2000/svg" width="609.000000pt" height="609.000000pt" viewBox="0 0 609.000000 609.000000" preserveAspectRatio="xMidYMid meet">

<g transform="translate(0.000000,609.000000) scale(0.100000,-0.100000)" fill="#ffffff" stroke="none">
<path d="M1121 5553 c-71 -37 -76 -53 -79 -256 -2 -159 0 -186 15 -216 27 -51 61 -72 129 -77 71 -6 117 14 151 65 22 32 23 44 23 210 0 193 -7 224 -62 265 -39 28 -132 33 -177 9z"/>
<path d="M3821 5553 c-19 -10 -44 -31 -55 -46 -20 -27 -21 -42 -21 -222 0 -180 1 -196 21 -222 47 -64 159 -84 225 -40 61 40 69 70 69 262 0 187 -8 219 -62 259 -39 28 -132 33 -177 9z"/>
<path d="M305 5296 c-113 -36 -199 -110 -248 -214 l-32 -67 -3 -1874 c-2 -2050 -6 -1925 54 -2050 50 -101 169 -195 288 -227 41 -11 222 -14 958 -14 l908 0 -113 113 c-109 109 -206 237 -263 348 l-24 48 -677 3 c-624 3 -681 4 -717 21 -66 29 -123 83 -153 145 l-28 57 -3 1418 -2 1417 2235 0 2235 0 2 -657 3 -656 85 -23 c47 -13 97 -27 113 -30 l27 -7 -2 999 c-3 950 -4 1001 -22 1039 -31 68 -85 132 -135 164 -89 54 -132 61 -378 61 l-223 0 0 -112 c0 -137 -21 -193 -92 -251 -59 -49 -118 -69 -203 -70 -116 -1 -215 59 -261 158 -21 43 -24 66 -24 163 l0 112 -1054 0 -1053 0 -5 -112 c-3 -87 -9 -124 -26 -161 -65 -145 -263 -205 -417 -126 -53 28 -81 55 -113 109 -24 40 -28 58 -32 165 l-5 120 -280 2 c-204 1 -291 -2 -320 -11z"/>
<path d="M612 4178 c-9 -9 -12 -75 -12 -235 0 -210 1 -223 19 -233 29 -15 613 -14 629 2 17 17 17 449 0 466 -17 17 -619 17 -636 0z"/>
<path d="M1483 4183 c-10 -3 -13 -61 -13 -238 0 -203 2 -234 16 -239 28 -11 604 -7 625 4 18 10 19 23 19 235 0 212 -1 225 -19 235 -20 10 -603 14 -628 3z"/>
<path d="M2348 4179 c-16 -9 -18 -31 -18 -229 0 -185 2 -221 16 -234 13 -14 56 -16 319 -16 263 0 306 2 319 16 24 23 24 435 0 458 -13 14 -56 16 -317 16 -187 0 -309 -5 -319 -11z"/>
<path d="M3218 4179 c-16 -9 -18 -31 -18 -234 0 -212 1 -225 19 -235 21 -11 597 -15 625 -4 14 5 16 35 16 233 0 163 -3 230 -12 239 -16 16 -604 17 -630 1z"/>
<path d="M612 3518 c-9 -9 -12 -75 -12 -235 0 -210 1 -223 19 -233 21 -11 597 -15 625 -4 14 5 16 35 16 233 0 163 -3 230 -12 239 -17 17 -619 17 -636 0z"/>
<path d="M1483 3523 c-10 -3 -13 -61 -13 -238 0 -203 2 -234 16 -239 28 -11 604 -7 625 4 18 10 19 23 19 233 0 160 -3 226 -12 235 -9 9 -92 12 -317 11 -169 0 -312 -3 -318 -6z"/>
<path d="M2346 3514 c-24 -24 -24 -435 0 -459 14 -14 52 -15 325 -13 262 3 311 5 319 18 5 8 10 110 10 227 0 179 -2 214 -16 227 -13 14 -56 16 -319 16 -263 0 -306 -2 -319 -16z"/>
<path d="M3775 3013 c-374 -17 -810 -129 -1122 -290 -383 -196 -620 -444 -714 -743 -31 -100 -34 -309 -5 -410 52 -179 147 -332 306 -490 349 -349 891 -577 1537 -645 161 -17 478 -19 643 -5 420 38 823 171 1117 368 50 34 94 65 97 70 3 5 -48 -17 -113 -49 -234 -116 -546 -207 -863 -251 -188 -26 -607 -31 -783 -10 -834 102 -1471 440 -1708 907 -75 149 -93 328 -48 475 77 250 284 469 614 650 91 49 113 50 29 0 -244 -144 -432 -348 -511 -555 -31 -80 -35 -103 -39 -206 -5 -138 15 -227 79 -349 217 -418 853 -745 1606 -825 161 -17 485 -20 634 -5 332 33 635 117 891 247 349 176 559 401 629 673 30 116 24 310 -13 415 -70 196 -191 358 -388 515 -453 361 -1131 546 -1875 513z m-480 -457 c139 -37 215 -124 215 -247 -1 -82 -46 -149 -126 -188 l-39 -20 40 -16 c65 -27 106 -64 131 -119 46 -99 26 -208 -53 -288 -158 -161 -509 -150 -665 21 l-51 55 59 54 c102 92 96 90 146 40 24 -24 64 -54 89 -66 85 -41 214 -21 244 39 42 80 -6 149 -115 167 -36 6 -77 9 -91 6 -40 -9 -50 14 -47 103 l3 78 77 7 c120 11 177 52 163 117 -21 96 -189 107 -304 20 l-54 -41 -63 63 c-35 35 -64 68 -64 74 2 29 160 128 233 145 53 13 219 11 272 -4z m991 0 c55 -14 147 -60 165 -82 8 -9 -4 -32 -47 -88 -31 -42 -58 -76 -60 -76 -2 0 -30 14 -63 31 -121 63 -250 46 -307 -41 -25 -38 -60 -147 -50 -157 3 -3 19 6 35 20 46 38 97 51 196 51 149 -1 255 -60 317 -175 34 -66 33 -193 -3 -269 -71 -151 -243 -230 -435 -200 -225 35 -353 206 -354 473 0 248 116 441 306 506 71 24 222 28 300 7z m1054 -96 l0 -100 -219 0 -220 0 -3 -86 -3 -85 25 5 c95 22 154 25 219 12 92 -19 139 -45 193 -105 139 -154 80 -399 -117 -492 -182 -85 -471 -41 -589 90 -19 21 -19 21 50 94 37 39 69 74 71 76 1 2 19 -11 40 -29 83 -74 212 -102 298 -66 66 28 96 123 59 186 -25 41 -69 62 -143 67 -65 5 -106 -6 -153 -39 -13 -10 -31 -5 -92 23 l-75 34 -1 136 c0 75 3 191 7 257 l6 122 324 0 323 0 0 -100z m210 30 c30 -30 24 -59 -13 -73 -12 -5 -26 1 -43 18 -28 28 -30 38 -8 59 21 21 40 20 64 -4z m-2010 -1107 c88 -39 139 -127 126 -216 -9 -57 -39 -103 -94 -142 -43 -29 -46 -30 -183 -33 l-139 -4 0 204 c0 113 3 208 8 212 4 5 59 6 122 4 86 -4 127 -10 160 -25z m506 -143 c42 -91 84 -184 94 -207 l19 -43 -53 0 c-52 0 -52 0 -74 45 l-22 45 -89 0 -89 0 -19 -45 -18 -45 -52 0 c-29 0 -53 2 -53 5 0 3 32 76 71 163 39 86 80 179 91 205 l21 48 49 -3 49 -3 75 -165z m231 95 c23 -38 46 -76 51 -84 6 -11 22 8 61 72 l54 87 53 0 c30 0 54 -4 54 -9 0 -5 -35 -60 -77 -122 l-78 -114 -5 -85 -5 -85 -52 -3 -53 -3 0 83 0 83 -80 120 c-44 66 -80 124 -80 128 0 4 26 7 57 5 l58 -3 42 -70z m594 54 c27 -12 49 -23 49 -26 0 -2 -12 -20 -26 -38 l-26 -34 -39 19 c-46 24 -102 26 -123 4 -32 -31 -14 -47 79 -74 69 -20 111 -42 132 -69 18 -23 16 -102 -3 -130 -52 -74 -233 -81 -324 -11 l-25 19 29 30 29 31 33 -21 c49 -30 123 -36 152 -13 38 31 20 50 -76 79 -108 33 -142 64 -142 127 0 50 19 81 64 109 44 27 151 26 217 -2z"/>
<path d="M4036 2025 c-86 -31 -125 -107 -91 -180 47 -98 192 -122 278 -45 30 26 32 33 32 93 0 56 -4 69 -24 91 -23 25 -104 57 -140 56 -9 -1 -34 -7 -55 -15z"/>
<path d="M3354 1307 c-2 -7 -3 -62 -2 -123 l3 -109 40 -3 c90 -8 154 36 162 110 8 82 -53 138 -152 138 -28 0 -48 -5 -51 -13z"/>
<path d="M3896 1226 c-15 -32 -25 -60 -23 -63 3 -2 27 -3 54 -1 l50 3 -28 60 -27 60 -26 -59z"/>
<path d="M611 2856 c-8 -9 -11 -81 -9 -237 l3 -224 305 -5 c168 -3 315 -2 328 2 22 7 22 8 22 231 0 160 -3 226 -12 235 -19 19 -621 17 -637 -2z"/>
<path d="M1483 2863 c-10 -3 -13 -61 -13 -238 l0 -232 198 -7 c249 -9 287 -5 315 31 12 16 50 58 84 94 l63 66 0 134 c0 92 -4 139 -12 147 -9 9 -92 12 -317 11 -169 0 -312 -3 -318 -6z"/>
<path d="M2360 2863 c-8 -3 -18 -11 -22 -17 -9 -13 -10 -90 -2 -99 4 -3 21 4 38 17 17 13 57 38 89 56 31 17 57 36 57 41 0 10 -135 11 -160 2z"/>
<path d="M605 2188 c-3 -13 -4 -120 -3 -238 l3 -215 325 0 325 0 0 235 0 235 -322 3 -323 2 -5 -22z"/>
<path d="M1476 2202 c-4 -7 -9 -369 -6 -459 0 -10 34 -13 134 -13 l133 0 7 94 c7 103 33 218 71 314 14 34 25 64 25 67 0 9 -359 5 -364 -3z"/>
</g>
</svg>